<svg version="1.1" preserveAspectRatio="none" xmlns="http://www.w3.org/2000/svg" width="500" height="500" viewBox="0 0 500 500"><rect width="100%" height="100%" fill="#FFEB62" fill-opacity="1"/><svg viewBox="63.3198 394.7053 384.9725 233" width="333" height="201.54426614888075" x="83.5px" y="149.2279px" xmlns="http://www.w3.org/2000/svg" xmlns:xlink="http://www.w3.org/1999/xlink" preserveAspectRatio="none"><defs></defs><style>.companyName {fill:#262626;fill-opacity:1;}.icon1 {fill:#262626;fill-opacity:1;}.icon2 {fill:#FF7B04;fill-opacity:1;}.icon3 {fill:#928B53;fill-opacity:1;}.icon3-str {stroke:#928B53;stroke-opacity:1;}.text {fill:#262626;fill-opacity:1;}</style><g opacity="1" transform="rotate(0 63.3198 394.7053)">
<svg width="76.443" height="120" x="63.3198" y="394.7053" version="1.1" preserveAspectRatio="none" viewBox="49.02521896362305 19.999998092651367 101.87991333007812 159.93101501464844">
  <g transform="matrix(1 0 0 1 0 0)"><g><path d="M134.8 81.1c-3.4-8.4-5.6-17-6.3-26.1-.5-6.6.6-13.6-2.2-19.9-5.1-11.5-23.2-17.8-34.5-12.4-9.9 4.8-13.6 14.5-17.6 24.5-.3.7-.6 1.5-.8 2.2-4.7 13.2-10.1 22-17.1 33.9-22.7 38.7 35.6 84.7 69.2 54.9 9.3-8.2 15.1-20.4 15.8-32.9.3-8.4-3.4-16.4-6.5-24.2zM90.1 51.7c-2.8 0-5.1-2.3-5.1-5.2s2.3-5.2 5.1-5.2 5.1 2.3 5.1 5.2-2.3 5.2-5.1 5.2zm21 0c-2.8 0-5.1-2.3-5.1-5.2s2.3-5.2 5.1-5.2 5.1 2.3 5.1 5.2-2.3 5.2-5.1 5.2z" data-color="1" class="icon1"></path><path d="M91.3 41.2s-6.1 3.9-.4 10.6c0 0 4-.9 4.3-5.3 0 0 .3-3.7-3.9-5.3zm1.2 3.6c-.3 0-.5-.2-.5-.5s.2-.5.5-.5.5.3.5.5c-.1.3-.3.5-.5.5z" data-color="2" class="icon2"></path><path d="M112.5 41.2s-6.1 3.9-.4 10.6c0 0 4-.9 4.3-5.3 0 0 .3-3.7-3.9-5.3zm1.3 3.6c-.3 0-.5-.2-.5-.5s.2-.5.5-.5.5.3.5.5c0 .3-.2.5-.5.5z" data-color="2" class="icon2"></path><path d="M111.5 100.3c0 10.6-7.2 19.3-16 19.3s-16-8.6-16-19.3S86.7 81 95.5 81c8.9 0 16 8.6 16 19.3z" data-color="3" class="icon3"></path><path d="M98.9 58.7h-.5c-2.3-.2-3.8-2.1-3.8-2.2-.4-.5-.3-1.1.2-1.5.5-.4 1.1-.3 1.5.2 0 0 1 1.2 2.4 1.3 1 .1 2-.3 3-1.3.4-.4 1.1-.3 1.5.1.4.4.3 1.1-.1 1.4-1.4 1.4-2.8 2-4.2 2z" data-color="2" class="icon2"></path><path d="M132.9 118.2c-.1-.9 0-1.6.9-2 .2-.8-.7-1-.9-1.6l.4-2-1.1.6.5 1.4-1 1v.9l-.4.2.3 1.4c0-.6.3-.9.6-1.2.1-.1.3 0 .4 0v1.4l-.6.7v.6c0 .2-.1.3-.1.5l-.4-.1-.1-1.5c-.2.6-.1 1.3-.9 1.6.8.6-.3 1.1.2 1.7h1l.8-.8v-1l1.1-.1c0-.1-.1-.1-.1-.2l.9-.6-.5-1.1-1 .2z" data-color="2" class="icon2"></path><path d="M129.2 126.2v-1.4l.9-.8v-1.3l-.9-1v-.9l.5-.2c.2-.9-.6-1.1-.9-1.6l-.1-.8-.6.1v1.3l-1 .6 2 1.5c0 .6-.5.8-.8 1.1l-1.4-.3-.9.8c0 .4 0 .6.1.9.6.2 1.1.3 1.5.5v-1.1l.5-.4c.8.5.4 1.2.4 1.9-.4-.2-.6-.3-.9-.4v2.5h.7c.3-.3.6-.6.9-1z" data-color="2" class="icon2"></path><path d="M126.2 124.3c0-.1 0 0 0 0z" data-color="2" class="icon2"></path><path d="M122.4 39.1c.4.7-.2 1-.5 1.3l.3.3-.4.5 1 1 .9-.9v-.8l-.9-.6c0-.5-.2-1 0-1.2.6-.7 0-1.2-.1-1.7h-1l-.5 1.1.5 1.1c.2-.1.5-.1.7-.1z" data-color="2" class="icon2"></path><path d="M132.8 95.7l.6-.6v-1l-.8-.1-.2-.4-.6.5-.2 1.1.6.5V97l-.5.2v1.4h1.5l-.4-2.9z" data-color="2" class="icon2"></path><path d="M129.8 82.7l.4 2.4h1.3l.3-1.1-.7-1h-.8v-1.8h-1.1c-.1.2-.1.3-.2.5s-.2.3-.2.5c0 .1 0 .3.1.4l.9.1z" data-color="2" class="icon2"></path><path d="M121.9 43.4v1.4l.3-.3.4 1.3c.5-.6.8-1.1 1.2-1.4.1-.1.5 0 .7 0l.2.7 1-.4-.7-1.5c-.7-.2-.8.7-1.3.9l-.5-.5c-.4-.2-.8-.2-1.3-.2z" data-color="2" class="icon2"></path><path d="M132.6 108.4l-.1-1.6-1 .7.5 1.2 1.4.5-.1.9c-.3-.2-.4-.3-.6-.4-.2-.1-.3-.1-.5-.1l-.1.2 1 .8v1.1h.2l.1-1.2h.8c.1-.8-.1-1.6-.8-2.2.2.1-.8.1-.8.1z" data-color="2" class="icon2"></path><path d="M126.8 75c.5-.6.5-.6.5-1.4l-.6-.8.7-.7v-2h-.8l-.7.8.5.5.4 3.6z" data-color="2" class="icon2"></path><path d="M135.7 104.6h.1l-.2.9c.2 0 .4 0 .5.2.1.2.2.4.3.7l1-.9v-1.1l-.9-.9-.8 1.1z" data-color="2" class="icon2"></path><path d="M134.2 108.1l1.1-.1v-2h-1.7l.6 2.1z" data-color="2" class="icon2"></path><path d="M135.6 102c0-.1-.1-.3-.1-.4h-.8l-.9.9.8 1.2c.7.1.9-.4 1.2-.7-.1-.3-.1-.6-.2-1z" data-color="2" class="icon2"></path><path d="M130.4 113.1l-.9.7c-.1.7-.1 1.5.6 2l1.2-1.5-.9-1.2z" data-color="2" class="icon2"></path><path d="M133.1 101.6h.6c.5-.7.5-1.3.4-2.1h-1.5c0 .9-.1 1.6.5 2.1z" data-color="2" class="icon2"></path><path d="M130.4 86.4l-1.5-.3c-.5.2-.3.8-.1 1.1l.7 1 .9-1v-.8z" data-color="2" class="icon2"></path><path d="M120 33.7v-1.1l-.7-.9-.8.7v1l1 .8.5-.5z" data-color="2" class="icon2"></path><path d="M131.7 90.9c0-.8.1-1.6-.5-2.1h-.6c-.5.7-.5 1.4 0 2.1h1.1z" data-color="2" class="icon2"></path><path d="M127.3 63.9h-1.8v1.7h1.1l.7-1.7z" data-color="2" class="icon2"></path><path d="M124.1 71.5h.7l.4-2H124c.1.6-1.2.6-.5 1.4l.4.1.2.5z" data-color="2" class="icon2"></path><path d="M128.8 84.4l-.3-1.6c-.8.3-1 .9-1.3 1.4l.7 1.3.9-1.1z" data-color="2" class="icon2"></path><path d="M128.1 79.2l-1 .3v1.6h1.4c.3-.7-.1-1.3-.4-1.9z" data-color="2" class="icon2"></path><path d="M132.2 88.4c.2-.5.4-1.1 1-1.4-.4-.3-.7-.9-1.1-.8l-.8.9.9 1.3z" data-color="2" class="icon2"></path><path d="M120.6 50.7c0 .1.1.2.1.2h1.1v-1.1l-.9-.9c-.5.5-.2 1.2-.3 1.8z" data-color="2" class="icon2"></path><path d="M132.3 91.8l.7 1 .8-1.2-.5-1-1 .4v.8z" data-color="2" class="icon2"></path><path d="M123.5 68.2l.9-1-.9-.9h-.9c.2.7.3 1.2.4 1.7.1.1.3.2.5.2z" data-color="2" class="icon2"></path><path d="M119.5 53.3l1.6.8c.4-.8-.1-1.3-.4-2.1l-1.2 1.3z" data-color="2" class="icon2"></path><path d="M125 79l.3 1.5h.8c.2-.8 0-1.5-.5-2.3l-.6.8z" data-color="2" class="icon2"></path><path d="M131.7 110.1l-.7-.6-.7.6.6 1.6 1.3-.6-.9-.6.4-.4z" data-color="2" class="icon2"></path><path d="M121.2 40.7c.1-.8-.4-1-.9-1.5-.1.6 0 1.2-.3 1.6-.1.1.1.4.1.8l1.1-.9z" data-color="2" class="icon2"></path><path d="M127.7 89.4l1 1.7c.9-.6.2-1.2-.1-1.8l-.9.1z" data-color="2" class="icon2"></path><path d="M130.9 94.2c.2-1 .2-1.7-.5-2.4l-.5.5 1 1.9z" data-color="2" class="icon2"></path><path d="M120.5 44.5h.7v-1.8h-.5l-.2 1.8z" data-color="2" class="icon2"></path><path d="M132.2 103.5v-1.8l-1 1.8h1z" data-color="2" class="icon2"></path><path d="M132.3 104.8l1.4-.1-.6-1.1-.8 1.2z" data-color="2" class="icon2"></path><path d="M131 97v-1.2h-.7l.5 1.3.2-.1z" data-color="2" class="icon2"></path><path d="M123.8 73.7v1l.6-.1-.2-.9h-.4z" data-color="2" class="icon2"></path><path d="M119.8 57.4h.4v-.7l-.6.1c.1.1.2.6.2.6z" data-color="2" class="icon2"></path><path d="M125.6 127.7h.2v-.8h-.3l.1.8z" data-color="2" class="icon2"></path><path d="M122.3 70.8c.5.1.5.1.4-.6l-.4.6z" data-color="2" class="icon2"></path><path d="M113 25.9v.3l.5-.1V26c0-.1-.5-.1-.5-.1z" data-color="2" class="icon2"></path><path d="M125.5 42.8l-.3.2.1.1.2-.3z" data-color="2" class="icon2"></path><path d="M124.8 73c0 .1 0 .2-.1.2s-.1-.1-.1-.2 0-.2.1-.2.1 0 .1.2z" data-color="2" class="icon2"></path><path d="M133.9 104.7v.3h.1v-.3h-.1z" data-color="2" class="icon2"></path><path d="M123.5 128.5s-.1.1-.2.1-.2 0-.2-.1.1-.1.2-.1c.1.1.2.1.2.1z" data-color="2" class="icon2"></path><path d="M144.4 81.5c-2.8-6.8-5-13.8-6.9-20.9-1.9-7-2.8-14.5-5.2-21.3-2.9-8.3-11.3-15.4-20.2-17.1-3.7-1.4-7.6-2.2-11.4-2.2h-.7c-1.1 0-2.2.1-3.2.2C82.6 22.1 76.7 35.6 72 47.4c-2.7 7-5.4 13.8-9 20.5C59.8 74 55.8 79.8 52.8 86c-4 8.2-4.8 17.5-2.5 26.3 4.1 15.1 16.4 27.5 30.8 33.5-4.3 9.9.1 20.3 4.8 29.3-2.9.3-5.6 1.1-8.3 2.4-1.5.7-.2 3 1.3 2.3 2.8-1.4 5.9-2.1 9.1-2.2.7 0 1.3-.6 1.3-1.4 0-.2-.1-.4-.2-.6-4.7-8.6-10-19.1-5.6-28.9 1.7.6 3.5 1.2 5.3 1.6 3.3.8 6.7 1.2 10.1 1.3h2.1c1.6 0 3.2-.1 4.8-.3 1.2-.1 2.4-.3 3.6-.5-3.7 8.7.5 17.8 5.1 25.6-2.8.3-5.5 1-8.2 2.2-1.5.7-.2 2.9 1.3 2.3 2.9-1.3 5.9-1.9 9.1-2 1 0 1.7-1.1 1.1-2-4.7-7.9-10.4-17.8-5.1-26.8 17.5-4.6 36.3-19.2 38-37 1.1-10.6-2.4-20-6.3-29.6zm-12.5-1.9c.1.3.2.6.3.8h-.3v-.8zm-4.8-18.3c-.7-.8-.8-1.6-.3-2.6 0 .8.1 1.7.3 2.6zm-.8-9.7l-1.5-.8-.2.7h-.8v-.8l.5-.4c.2-.9-.1-1.5-.6-2-.3-.3-.4-.6-.1-1.2l.6.6 1.2.5-.4.7 1.3 1v1.7zm-19.4 94.7l.1-.9 1.3.4c.1-.2.3-.4.4-.6.1-.1.3-.2.5-.4l.1.9c-.8.3-1.6.5-2.4.6zm3.8-.9zm5-3c0 .6-.5.8-1.1.7-.5-.7.2-1.3.2-1.9 0-.4.6-.7.9-.5l.8-.9.1 1.3c-.5.3-.8.7-.9 1.3zm1.6.1v-.9l.9-.5v-.7h.6l.6.8c-.6.4-1.3.9-2.1 1.3zm2.7-3.7h-.9v1.4l-.9-.6c.2-.6.4-.9.9-.8-.1-.3-.2-.7-.4-1.2l1.3-.1v1.3zm.7 1.6v-.6h.8c-.3.2-.5.4-.8.6zm3.6-3l-.2.3c-.4.3-.8.7-1.1 1l-.7-.5c-.6.4-.7 1.5-1.8 1.2v-1l1.1-1.3h.9l.2 1 1.7-1.9-.1 1.2zm-2.4-3v-1.9c.9.6 1.4 1.2 1.7 2l.4.1v1.1c-.2 0-.3.1-.4 0-.3-.2-.5-.7-.8-.6-.9.2-1.1.9-1.5 1.4-.5-1-.4-1.5.6-2.1zm2.5-2.6l-.9-.1v-1l1.2.4.7-.4.6 1.9.4.1c.5.9-.7 1.1-.6 1.9l-1-.4c-.2-.8-.3-1.6-.4-2.4zm.5 5.1l.2-.2-.2.2zm.6-.6c0-.4-.1-.9.6-1.2l.5.1-1.1 1.1zm2.3-2.4l-.2-.5-.4-.2v-1.1h.8l.7.9c-.4.3-.6.6-.9.9zm1.4-3.2l-1.3 1.3c-.2-.5-.3-.8-.4-1.1-.2-.3-.4-.6-.5-.8l.9-1h.6l.7.9v.7zm6-8.5l-.2-1.2h.7c-.1.4-.3.8-.5 1.2zm3.1-9.7l-.2-.2v-.9c-.5.1-.5.8-.8.9-.6.1-.3.7-.6.8.5.9 0 1.9.3 2.7l-.7.5c.4.1.7.4.9.7-.2.6-.4 1.1-.6 1.7l-.6-.3c.1-.7-.2-1.5.3-2.1l-.6-.4v-1.4l.7-.3-.7-.2v-2l.5-.1v-1.7l.9-.1.1-.5.9-.1v1.9h.4c-.1.4-.1.8-.2 1.1zm.8-6.4c-.1 0-.1 0 0 0-.2-.2-.4-.3-.6-.5-.5 1.2-.4 2.2.2 2.6l.3-.1c0 .4-.1.8-.1 1.3h-1v-1l-.9-.8c-.8.6-.6 1.5-.7 2.3l-1.1.4-.2.5h-.5c.2.5.5 2 .5 2.4l-.7.1c-.1 1.4 0 1.7 1 2.4l-.7 1.2v1.5l1.5.5c0 .8-1 1.2-.6 2l-.2.2H134c-.7 1.7-.7 1.7-1.6 1.9 0 .6-.7.8-.9 1.3.2.2.4.4.6.7.2.2.3.5.7 1l.3-1.1.7-.7-.9-.4.9-.5.4.8 1.1-1.3c-.6 1.3-1.2 2.6-1.9 3.8 0 0 0 .1-.1.1-.2.4-.4.7-.6 1.1v-.1l-.9.8v.8c-.6.9-1.2 1.8-1.9 2.7l-.2-1.2c.9-.6 1-.6.7-3.2.5-.1 1.1.2 1.5-.4V125h-1.4l-.4.4v1.8l-1.2 1.5-.9-.9v-.6l-1.2.4c-.2.5-.6 1-.1 1.6.2.3 0 .9 0 1.4-.7-.3-1.1-.6-1.2-1.3 0-.3-.4-.5-.6-.9l-1 1.1v1.1l-1.1-.8v.9c-.5 1.1-1.4 1.2-2.3 1.7l.4 2.9-1 .8v1.1h-.8l-.5-1.3.9-.8v-1.3l-1.2 1.3v1.5l-1.1-.1c0-.1-.1-.2-.1-.4l-.5.2.3 1.1.5.1c-.1.6.3 1.4-.6 1.8-.9-.5-1.8-.3-2.9 0l1 .5-1.5.5c0 .6-.6.8-.9 1.2l-.6-.3-1 1v.7l1 .8.9-1 .1-1.2.7.9.8.1v1.5c-1 .4-2 .8-3.1 1.2l-1-1.3-.5.8c-.9-.3-1.1-1.6-2.1-1.6l-1.5.5 1.1.2v.8h-1.4c-.1.2-.1.4-.2.6-.1.2-.3.3-.5.5l.3.3-.2.7c-.3 0-.5.1-.8.1l.1-.1v-1.5l-1.6.5.3 1.2c-.5 0-1 .1-1.4.1l-.1-.2c-.1.1-.2.1-.3.2h-2.2l-.2-.1-.1.1c-2.3 0-4.5-.3-6.8-.7-16.6-3.2-32.1-15.5-37.9-31.6-3.3-9.2-3-19.2 1.5-28C59 80.3 63.1 74.4 66.4 68c3.4-6.5 6-13.2 8.6-20 4.1-10.3 9.1-22.7 21.3-25.1 4-.8 8.4-.5 12.6.8l.6.3v-.1c.6.2 1.1.4 1.7.6l-.1.1c.4.2.6.2.8.3.2.2.4.4.7.6 0 0 .2 0 .3-.1v-.2c1.1.5 2.2 1.1 3.2 1.7v.4h.7c.3.2.7.4 1 .7-.3.2-.5.5-.8.8l.5 1c.3 0 .6 0 1-.1l.1-.1v-1.1c.4.3.9.7 1.3 1.1v.7l.7 1 .8.1V34l-.6.5v1.2l-.7.8.4.5-.4 1c1-.3.5-1.1.7-1.4l1.7-1.3-.8-.9 1.3-1.2V33c.2.2.3.5.5.7-.3.8-.3 1.5.4 2.3l.7-.6c.2.3.3.7.5 1-.1-.1-.2-.1-.4-.3v2.2h1.1c.1.4.2.9.3 1.3H125v.8l.7 1 .7-.5c.3 1.6.4 3.3.5 4.9v2h-.4v-.9l-.8-1.2c-1-.2-1.1.7-1.6 1.3-.5-.2-.8-1.1-1.5-.6l-.4.7-1.2-1.2c.1.9-.6 1-1 1.2.5.6.5.6 1.1.7l.4-.6 1.8 1.7.4 2.5c-.7.3-.9.8-1 1.3l.9 1 .6-.1.2-.6h1.7c.2-.4.5-.8.8-1.2v1.8l-.9 1.2-.7-.9-.9 1.3h-.9l-.2-.6h-1.1v.8c0 .2-.2.4-.2.6l.3.6 1.5.5V56l.5-.5c.3.4.5.8.8 1.2 0 .1.2.1.4.1l.8-1.1V55l.6.1.1.4.2.1c.1.9.1 1.8.2 2.7l-.4-.7h-.9l-.3.6.3 1.5h.8v.7l-1 .9c-.5-.5-.5-1.4-1.2-1.5v-2.2l-.8-.4-.8 1.3 1 1.4v1.4c.1.5.2 1 .3 1.7l-.7.5c.5.4.5.8.1 1.2-.1.1 0 .3 0 .4h1l.9-.9-.7-.8v-1.1l1.1-1.1.1 1.4h1l.6-.6c.1.5.2 1.1.3 1.6l-.1.3.1.1c.2 1.2.5 2.4.7 3.6h-.8l-.3.8-.7-.8.4-.5H125v1.5h2.4V70l1.1-.4c.1-.1.1-.2.2-.3.1.5.2.9.4 1.4l-.4.5.8 1h.1c.2.5.3 1.1.5 1.6-.1-.1-.2-.3-.3-.4l-.9.9v1.2h1.5v-1c0 .1 0 .1.1.2.2.8.5 1.5.8 2.3v.4h.2c.2.4.3.8.5 1.3h-1.1l-.7-1.6h-1.4c-.2-.9-.9-1.1-1.5-1.4l-.2 1-1-.8h-.9l-.4.8c.4.3.7 1 1.4.7l.3-.6c.6.4 1 .7 1.1 1.3 0 0 .2 0 .3.1l.4-.6c.8.1.6.8.9 1.3h1.4l.6 2.1 1.5.1c-.2.8.1 1.3.5 1.8l.2-.2.3.6-.8 1.2.5 1.5h.8l.2-.9c.1.3.3.7.4 1l.1.1c.2.4.4.9.5 1.3l-.6.3c-.3.1-.6 0-.8 0-.1.8-.1 1.5.3 2.1 0 .1.2.1.4.1l.8-1v-1.3c.4 1 .8 2 1.1 3h-1.3c-.6.9.5 1.3.5 2.1l-1.2.4v1.6l.5.5v.8l-.6.2c0 .9-.2 1.8.9 2.2.1.8-.2 1.7.5 2.3h.8c-.4 1 .5 1.4.7 2.2.3-.1.5-.1.7-.1.2-.1.3-.2.6-.3-1-.7-.1-1.2-.2-1.8l-1.5-.1V99c-.5-.1-1.1 0-1.2-.9 1.1-1-.3-2.2 0-3.2l.7-1-.7-.3V93c.7-.6 1-1.3.9-2.1.4 1.2.8 2.3 1.2 3.5h-.8c-.2.8 0 1.5.4 2.1h.8v-.7c.2.7.3 1.4.5 2h-.8c-.1.7 0 1.4.7 1.9l.4-.5c.2 1.3.4 2.6.5 3.9l-.3.3c-.2.7 0 1.3.3 1.9-.5 0-.5.4-.5.8z" data-color="2" class="icon2"></path></g></g>
</svg>
</g><g opacity="1" transform="rotate(0 63.3198 605.7053)">
<svg width="155.9684" height="22" x="63.3198" y="605.7053" version="1.1" preserveAspectRatio="none" viewBox="0.16 -30.88 221.76 31.28">
  <g transform="matrix(1 0 0 1 0 0)" class="text"><path id="id-6izo4zJp9" d="M9.44 0L9.44-23.60L0.16-23.60L0.16-28L23.92-28L23.92-23.60L14.64-23.60L14.64 0L9.44 0Z M43.48-21.60Q47.52-21.60 49.96-19.24Q52.40-16.88 52.40-12.24L52.40-12.24L52.40 0L47.40 0L47.40-11.60Q47.40-14.40 46.08-15.82Q44.76-17.24 42.32-17.24L42.32-17.24Q39.56-17.24 37.96-15.58Q36.36-13.92 36.36-10.80L36.36-10.80L36.36 0L31.36 0L31.36-29.68L36.36-29.68L36.36-18.88Q37.60-20.20 39.42-20.90Q41.24-21.60 43.48-21.60L43.48-21.60Z M83.04-10.56Q83.04-10.04 82.96-9.08L82.96-9.08L66.20-9.08Q66.64-6.72 68.50-5.34Q70.36-3.96 73.12-3.96L73.12-3.96Q76.64-3.96 78.92-6.28L78.92-6.28L81.60-3.20Q80.16-1.48 77.96-0.60Q75.76 0.28 73 0.28L73 0.28Q69.48 0.28 66.80-1.12Q64.12-2.52 62.66-5.02Q61.20-7.52 61.20-10.68L61.20-10.68Q61.20-13.80 62.62-16.30Q64.04-18.80 66.56-20.20Q69.08-21.60 72.24-21.60L72.24-21.60Q75.36-21.60 77.82-20.22Q80.28-18.84 81.66-16.34Q83.04-13.84 83.04-10.56L83.04-10.56ZM72.24-17.60Q69.84-17.60 68.18-16.18Q66.52-14.76 66.16-12.40L66.16-12.40L78.28-12.40Q77.96-14.72 76.32-16.16Q74.68-17.60 72.24-17.60L72.24-17.60Z M116.04 0.40Q112.80 0.40 109.78-0.52Q106.76-1.44 105.00-2.96L105.00-2.96L106.80-7Q108.52-5.64 111.02-4.78Q113.52-3.92 116.04-3.92L116.04-3.92Q119.16-3.92 120.70-4.92Q122.24-5.92 122.24-7.56L122.24-7.56Q122.24-8.76 121.38-9.54Q120.52-10.32 119.20-10.76Q117.88-11.20 115.60-11.76L115.60-11.76Q112.40-12.52 110.42-13.28Q108.44-14.04 107.02-15.66Q105.60-17.28 105.60-20.04L105.60-20.04Q105.60-22.36 106.86-24.26Q108.12-26.16 110.66-27.28Q113.20-28.40 116.88-28.40L116.88-28.40Q119.44-28.40 121.92-27.76Q124.40-27.12 126.20-25.92L126.20-25.92L124.56-21.88Q122.72-22.96 120.72-23.52Q118.72-24.08 116.84-24.08L116.84-24.08Q113.76-24.08 112.26-23.04Q110.76-22 110.76-20.28L110.76-20.28Q110.76-19.08 111.62-18.32Q112.48-17.56 113.80-17.12Q115.12-16.68 117.40-16.12L117.40-16.12Q120.52-15.40 122.52-14.62Q124.52-13.84 125.94-12.24Q127.36-10.64 127.36-7.92L127.36-7.92Q127.36-5.60 126.10-3.72Q124.84-1.84 122.28-0.72Q119.72 0.40 116.04 0.40L116.04 0.40Z M136.04 0L136.04-21.36L141.04-21.36L141.04 0L136.04 0ZM138.56-24.88Q137.20-24.88 136.28-25.74Q135.36-26.60 135.36-27.88L135.36-27.88Q135.36-29.16 136.28-30.02Q137.20-30.88 138.56-30.88L138.56-30.88Q139.92-30.88 140.84-30.06Q141.76-29.24 141.76-28L141.76-28Q141.76-26.68 140.86-25.78Q139.96-24.88 138.56-24.88L138.56-24.88Z M156.36-18.24Q158.52-21.60 163.96-21.60L163.96-21.60L163.96-16.84Q163.32-16.96 162.80-16.96L162.80-16.96Q159.88-16.96 158.24-15.26Q156.60-13.56 156.60-10.36L156.60-10.36L156.60 0L151.60 0L151.60-21.36L156.36-21.36L156.36-18.24Z M192.08-10.56Q192.08-10.04 192.00-9.08L192.00-9.08L175.24-9.08Q175.68-6.72 177.54-5.34Q179.40-3.96 182.16-3.96L182.16-3.96Q185.68-3.96 187.96-6.28L187.96-6.28L190.64-3.20Q189.20-1.48 187.00-0.60Q184.80 0.28 182.04 0.28L182.04 0.28Q178.52 0.28 175.84-1.12Q173.16-2.52 171.70-5.02Q170.24-7.52 170.24-10.68L170.24-10.68Q170.24-13.80 171.66-16.30Q173.08-18.80 175.60-20.20Q178.12-21.60 181.28-21.60L181.28-21.60Q184.40-21.60 186.86-20.22Q189.32-18.84 190.70-16.34Q192.08-13.84 192.08-10.56L192.08-10.56ZM181.28-17.60Q178.88-17.60 177.22-16.18Q175.56-14.76 175.20-12.40L175.20-12.40L187.32-12.40Q187.00-14.72 185.36-16.16Q183.72-17.60 181.28-17.60L181.28-17.60Z M213.00-21.60Q217.04-21.60 219.48-19.24Q221.92-16.88 221.92-12.24L221.92-12.24L221.92 0L216.92 0L216.92-11.60Q216.92-14.40 215.60-15.82Q214.28-17.24 211.84-17.24L211.84-17.24Q209.08-17.24 207.48-15.58Q205.88-13.92 205.88-10.80L205.88-10.80L205.88 0L200.88 0L200.88-21.36L205.64-21.36L205.64-18.60Q206.88-20.08 208.76-20.84Q210.64-21.60 213.00-21.60L213.00-21.60Z"/></g>
</svg>
</g><g opacity="1" transform="rotate(0 63.3198 538.7053)">
<svg width="384.9725" height="50" x="63.3198" y="538.7053" version="1.1" preserveAspectRatio="none" viewBox="2.08 -28.64 225.43999999999997 29.28">
  <g transform="matrix(1 0 0 1 0 0)" class="companyName"><path id="id-D6z1nYkh9" d="M6.16 0L10.28-20.68L2.08-20.68L3.56-28L29.40-28L27.92-20.68L19.72-20.68L15.60 0L6.16 0Z M50-28L59.44-28L53.84 0L44.40 0L46.48-10.32L37.76-10.32L35.68 0L26.24 0L31.84-28L41.28-28L39.28-18.08L48-18.08L50-28Z M85.32-20.88L71.84-20.88L71.20-17.60L83.04-17.60L81.68-10.80L69.80-10.80L69.08-7.12L83.12-7.12L81.68 0L58.40 0L64-28L86.76-28L85.32-20.88Z M108.44 0.64Q104.80 0.64 101.60-0.14Q98.40-0.92 96.32-2.20L96.32-2.20L99.96-9.16Q104.48-6.56 109.40-6.56L109.40-6.56Q111.20-6.56 112.16-7Q113.12-7.44 113.12-8.20L113.12-8.20Q113.12-8.92 112.14-9.36Q111.16-9.80 109.04-10.32L109.04-10.32Q106.24-11.04 104.40-11.78Q102.56-12.52 101.18-14.06Q99.80-15.60 99.80-18.12L99.80-18.12Q99.80-21.28 101.50-23.66Q103.20-26.04 106.40-27.34Q109.60-28.64 113.96-28.64L113.96-28.64Q117.08-28.64 119.78-28.02Q122.48-27.40 124.44-26.24L124.44-26.24L121.04-19.36Q119.40-20.40 117.42-20.92Q115.44-21.44 113.36-21.44L113.36-21.44Q111.40-21.44 110.32-20.88Q109.24-20.32 109.24-19.56L109.24-19.56Q109.24-18.80 110.22-18.36Q111.20-17.92 113.44-17.40L113.44-17.40Q116.16-16.76 118.02-16.04Q119.88-15.32 121.24-13.80Q122.60-12.28 122.60-9.80L122.60-9.80Q122.60-6.68 120.88-4.32Q119.16-1.96 115.96-0.66Q112.76 0.64 108.44 0.64L108.44 0.64Z M123.60 0L129.20-28L138.64-28L133.04 0L123.60 0Z M167.40-18.80Q167.40-15.08 165.42-12.30Q163.44-9.52 159.84-8.16L159.84-8.16L164.52 0L154.72 0L150.76-7.04L148.44-7.04L147.04 0L137.60 0L143.20-28L155.76-28Q161.28-28 164.34-25.58Q167.40-23.16 167.40-18.80L167.40-18.80ZM157.84-17.88Q157.84-20.72 154.32-20.72L154.32-20.72L151.16-20.72L149.84-14.16L153.72-14.16Q155.68-14.16 156.76-15.14Q157.84-16.12 157.84-17.88L157.84-17.88Z M194.32-20.88L180.84-20.88L180.20-17.60L192.04-17.60L190.68-10.80L178.80-10.80L178.08-7.12L192.12-7.12L190.68 0L167.40 0L173.00-28L195.76-28L194.32-20.88Z M218.32-28L227.52-28L221.92 0L214.16 0L206.12-13.04L203.52 0L194.32 0L199.92-28L207.68-28L215.72-14.96L218.32-28Z"/></g>
</svg>
</g></svg></svg>